<mxfile host="app.diagrams.net" agent="Mozilla/5.0 (Windows NT 10.0; Win64; x64) AppleWebKit/537.36 (KHTML, like Gecko) Chrome/133.0.0.0 Safari/537.36" border="50" scale="3" compressed="false" locked="false" version="25.0.3">
  <diagram name="Blank" id="YmL12bMKpDGza6XwsDPr">
    <mxGraphModel dx="1050" dy="2603" grid="0" gridSize="10" guides="1" tooltips="1" connect="1" arrows="1" fold="1" page="0" pageScale="1" pageWidth="827" pageHeight="1169" background="none" math="1" shadow="0">
      <root>
        <mxCell id="X5NqExCQtvZxIxQ7pmgY-0" />
        <mxCell id="1" parent="X5NqExCQtvZxIxQ7pmgY-0" />
        <mxCell id="Gr0Zq-AI6Quabplr0KPa-179" value="&lt;font style=&quot;font-size: 15px;&quot;&gt;Organ Donation&lt;/font&gt;" style="swimlane;html=1;startSize=20;horizontal=1;containerType=tree;labelBackgroundColor=none;strokeColor=#D4E1F5;strokeWidth=1;fillColor=none;fontFamily=Comic Sans MS;fontSize=9;swimlaneLine=0;dashed=1;collapsible=0;" parent="1" vertex="1">
          <mxGeometry x="99" y="-1955" width="746" height="456" as="geometry" />
        </mxCell>
        <mxCell id="Gr0Zq-AI6Quabplr0KPa-182" value="" style="edgeStyle=entityRelationEdgeStyle;startArrow=none;endArrow=none;segment=10;curved=1;strokeWidth=2;strokeColor=#660000;rounded=0;fontSize=12;startSize=8;endSize=8;" parent="Gr0Zq-AI6Quabplr0KPa-179" edge="1">
          <mxGeometry relative="1" as="geometry">
            <mxPoint x="565" y="201" as="sourcePoint" />
            <mxPoint x="684" y="166" as="targetPoint" />
            <Array as="points">
              <mxPoint x="726" y="139" />
              <mxPoint x="589" y="183" />
              <mxPoint x="587" y="189" />
            </Array>
          </mxGeometry>
        </mxCell>
        <mxCell id="Gr0Zq-AI6Quabplr0KPa-183" value="Login" style="text;html=1;resizable=0;points=[];align=center;verticalAlign=middle;labelBackgroundColor=none;rotation=0;fontFamily=Comic Sans MS;" parent="Gr0Zq-AI6Quabplr0KPa-182" vertex="1" connectable="0">
          <mxGeometry x="0.0245" y="2" relative="1" as="geometry">
            <mxPoint x="-426" y="-23" as="offset" />
          </mxGeometry>
        </mxCell>
        <mxCell id="Gr0Zq-AI6Quabplr0KPa-223" style="jumpStyle=arc;html=1;endArrow=classicThin;endFill=1;jettySize=auto;orthogonalLoop=1;strokeColor=none;strokeWidth=2;fontFamily=Comic Sans MS;fontSize=10;rounded=0;startSize=8;endSize=8;curved=1;" parent="Gr0Zq-AI6Quabplr0KPa-179" edge="1">
          <mxGeometry relative="1" as="geometry">
            <mxPoint x="131" y="121" as="sourcePoint" />
            <mxPoint x="157.74800769948888" y="102.00503801050786" as="targetPoint" />
          </mxGeometry>
        </mxCell>
        <mxCell id="aZNFLX7P17t4-BLINg9--5" value="" style="curved=1;endArrow=classic;html=1;rounded=0;fillColor=#fff2cc;strokeColor=#3333FF;" edge="1" parent="Gr0Zq-AI6Quabplr0KPa-179">
          <mxGeometry width="50" height="50" relative="1" as="geometry">
            <mxPoint x="150.5" y="245" as="sourcePoint" />
            <mxPoint x="258.5" y="226" as="targetPoint" />
            <Array as="points">
              <mxPoint x="155.5" y="243" />
              <mxPoint x="229.5" y="264" />
              <mxPoint x="208.5" y="226" />
            </Array>
          </mxGeometry>
        </mxCell>
        <mxCell id="aZNFLX7P17t4-BLINg9--7" value="" style="curved=1;endArrow=classic;html=1;rounded=0;fontColor=#99FFFF;strokeColor=#00FFFF;" edge="1" parent="Gr0Zq-AI6Quabplr0KPa-179">
          <mxGeometry width="50" height="50" relative="1" as="geometry">
            <mxPoint x="128" y="198" as="sourcePoint" />
            <mxPoint x="255" y="190" as="targetPoint" />
            <Array as="points">
              <mxPoint x="223" y="163" />
              <mxPoint x="162" y="202" />
              <mxPoint x="205" y="190" />
            </Array>
          </mxGeometry>
        </mxCell>
        <mxCell id="aZNFLX7P17t4-BLINg9--219" value="Register" style="text;html=1;resizable=0;points=[];align=center;verticalAlign=middle;labelBackgroundColor=none;rotation=0;fontFamily=Comic Sans MS;" vertex="1" connectable="0" parent="Gr0Zq-AI6Quabplr0KPa-179">
          <mxGeometry x="173.00451971180547" y="250.5010579508828" as="geometry">
            <mxPoint x="5" y="-27" as="offset" />
          </mxGeometry>
        </mxCell>
        <mxCell id="aZNFLX7P17t4-BLINg9--220" value="" style="image;aspect=fixed;html=1;points=[];align=center;fontSize=12;image=img/lib/azure2/identity/AAD_Licenses.svg;" vertex="1" parent="Gr0Zq-AI6Quabplr0KPa-179">
          <mxGeometry x="159" y="148" width="19.41" height="20" as="geometry" />
        </mxCell>
        <mxCell id="aZNFLX7P17t4-BLINg9--221" value="" style="shape=image;html=1;verticalAlign=top;verticalLabelPosition=bottom;labelBackgroundColor=#ffffff;imageAspect=0;aspect=fixed;image=https://cdn3.iconfinder.com/data/icons/essential-rounded/64/Rounded-31-128.png" vertex="1" parent="Gr0Zq-AI6Quabplr0KPa-179">
          <mxGeometry x="130" y="215.5" width="21" height="21" as="geometry" />
        </mxCell>
        <mxCell id="aZNFLX7P17t4-BLINg9--218" value="Take Organ" style="text;html=1;resizable=0;points=[];align=center;verticalAlign=middle;labelBackgroundColor=none;rotation=-15;fontFamily=Comic Sans MS;" vertex="1" connectable="0" parent="Gr0Zq-AI6Quabplr0KPa-179">
          <mxGeometry x="619.0045197118055" y="168.0010579508828" as="geometry">
            <mxPoint x="20.827646673109967" y="-0.9198710981515872" as="offset" />
          </mxGeometry>
        </mxCell>
        <mxCell id="aZNFLX7P17t4-BLINg9--223" value="" style="rounded=1;whiteSpace=wrap;html=1;verticalAlign=top;" vertex="1" parent="Gr0Zq-AI6Quabplr0KPa-179">
          <mxGeometry x="438" y="163" width="129" height="155" as="geometry" />
        </mxCell>
        <mxCell id="aZNFLX7P17t4-BLINg9--224" value="" style="whiteSpace=wrap;html=1;aspect=fixed;" vertex="1" parent="Gr0Zq-AI6Quabplr0KPa-179">
          <mxGeometry x="445" y="194" width="32.5" height="32.5" as="geometry" />
        </mxCell>
        <mxCell id="aZNFLX7P17t4-BLINg9--230" value="" style="whiteSpace=wrap;html=1;aspect=fixed;" vertex="1" parent="Gr0Zq-AI6Quabplr0KPa-179">
          <mxGeometry x="525" y="275" width="32.5" height="32.5" as="geometry" />
        </mxCell>
        <mxCell id="aZNFLX7P17t4-BLINg9--229" value="" style="whiteSpace=wrap;html=1;aspect=fixed;" vertex="1" parent="Gr0Zq-AI6Quabplr0KPa-179">
          <mxGeometry x="484" y="275" width="32.5" height="32.5" as="geometry" />
        </mxCell>
        <mxCell id="aZNFLX7P17t4-BLINg9--228" value="" style="whiteSpace=wrap;html=1;aspect=fixed;" vertex="1" parent="Gr0Zq-AI6Quabplr0KPa-179">
          <mxGeometry x="447" y="275" width="32.5" height="32.5" as="geometry" />
        </mxCell>
        <mxCell id="aZNFLX7P17t4-BLINg9--227" value="" style="whiteSpace=wrap;html=1;aspect=fixed;" vertex="1" parent="Gr0Zq-AI6Quabplr0KPa-179">
          <mxGeometry x="527" y="234.25" width="32.5" height="32.5" as="geometry" />
        </mxCell>
        <mxCell id="aZNFLX7P17t4-BLINg9--226" value="" style="whiteSpace=wrap;html=1;aspect=fixed;" vertex="1" parent="Gr0Zq-AI6Quabplr0KPa-179">
          <mxGeometry x="484" y="234.25" width="32.5" height="32.5" as="geometry" />
        </mxCell>
        <mxCell id="aZNFLX7P17t4-BLINg9--225" value="" style="whiteSpace=wrap;html=1;aspect=fixed;" vertex="1" parent="Gr0Zq-AI6Quabplr0KPa-179">
          <mxGeometry x="445" y="234.25" width="32.5" height="32.5" as="geometry" />
        </mxCell>
        <mxCell id="aZNFLX7P17t4-BLINg9--232" value="" style="whiteSpace=wrap;html=1;aspect=fixed;" vertex="1" parent="Gr0Zq-AI6Quabplr0KPa-179">
          <mxGeometry x="486.25" y="194" width="32.5" height="32.5" as="geometry" />
        </mxCell>
        <mxCell id="aZNFLX7P17t4-BLINg9--231" value="" style="whiteSpace=wrap;html=1;aspect=fixed;" vertex="1" parent="Gr0Zq-AI6Quabplr0KPa-179">
          <mxGeometry x="525" y="194" width="32.5" height="32.5" as="geometry" />
        </mxCell>
        <mxCell id="aZNFLX7P17t4-BLINg9--233" value="" style="edgeStyle=entityRelationEdgeStyle;startArrow=none;endArrow=none;segment=10;curved=1;strokeWidth=2;strokeColor=#660000;rounded=0;fontSize=12;startSize=8;endSize=8;" edge="1" parent="Gr0Zq-AI6Quabplr0KPa-179">
          <mxGeometry relative="1" as="geometry">
            <mxPoint x="567" y="279" as="sourcePoint" />
            <mxPoint x="686" y="244" as="targetPoint" />
            <Array as="points">
              <mxPoint x="728" y="217" />
              <mxPoint x="591" y="261" />
              <mxPoint x="589" y="267" />
            </Array>
          </mxGeometry>
        </mxCell>
        <mxCell id="aZNFLX7P17t4-BLINg9--236" value="Donate Organ" style="text;html=1;resizable=0;points=[];align=center;verticalAlign=middle;labelBackgroundColor=none;rotation=-15;fontFamily=Comic Sans MS;" vertex="1" connectable="0" parent="Gr0Zq-AI6Quabplr0KPa-179">
          <mxGeometry x="627.0045197118055" y="212.0010579508828" as="geometry">
            <mxPoint x="13.321894365136867" y="27.091977864231392" as="offset" />
          </mxGeometry>
        </mxCell>
        <mxCell id="aZNFLX7P17t4-BLINg9--242" value="" style="curved=1;endArrow=classic;html=1;rounded=0;" edge="1" parent="Gr0Zq-AI6Quabplr0KPa-179">
          <mxGeometry width="50" height="50" relative="1" as="geometry">
            <mxPoint x="200" y="184" as="sourcePoint" />
            <mxPoint x="460" y="163.5" as="targetPoint" />
            <Array as="points">
              <mxPoint x="350" y="85" />
            </Array>
          </mxGeometry>
        </mxCell>
        <mxCell id="aZNFLX7P17t4-BLINg9--243" value="" style="curved=1;endArrow=classic;html=1;rounded=0;entryX=0.008;entryY=0.866;entryDx=0;entryDy=0;entryPerimeter=0;" edge="1" parent="Gr0Zq-AI6Quabplr0KPa-179" target="aZNFLX7P17t4-BLINg9--223">
          <mxGeometry width="50" height="50" relative="1" as="geometry">
            <mxPoint x="166" y="253" as="sourcePoint" />
            <mxPoint x="428" y="432" as="targetPoint" />
            <Array as="points">
              <mxPoint x="292" y="423" />
            </Array>
          </mxGeometry>
        </mxCell>
        <mxCell id="aZNFLX7P17t4-BLINg9--244" value="" style="shape=mxgraph.signs.healthcare.kidney;html=1;pointerEvents=1;fillColor=#000000;strokeColor=none;verticalLabelPosition=bottom;verticalAlign=top;align=center;" vertex="1" parent="Gr0Zq-AI6Quabplr0KPa-179">
          <mxGeometry x="453.63" y="199.75" width="19.25" height="24.5" as="geometry" />
        </mxCell>
        <mxCell id="aZNFLX7P17t4-BLINg9--245" value="Organs DashBoard" style="text;html=1;align=center;verticalAlign=middle;whiteSpace=wrap;rounded=0;" vertex="1" parent="Gr0Zq-AI6Quabplr0KPa-179">
          <mxGeometry x="447" y="163" width="106.5" height="26" as="geometry" />
        </mxCell>
        <mxCell id="aZNFLX7P17t4-BLINg9--246" value="" style="shape=image;html=1;verticalAlign=top;verticalLabelPosition=bottom;labelBackgroundColor=#ffffff;imageAspect=0;aspect=fixed;image=https://cdn2.iconfinder.com/data/icons/cornavirus-covid-19/64/_lung_disease_lung_disease_virus_organ-128.png" vertex="1" parent="Gr0Zq-AI6Quabplr0KPa-179">
          <mxGeometry x="484" y="234.25" width="29.75" height="29.75" as="geometry" />
        </mxCell>
        <mxCell id="aZNFLX7P17t4-BLINg9--247" value="" style="shape=image;html=1;verticalAlign=top;verticalLabelPosition=bottom;labelBackgroundColor=#ffffff;imageAspect=0;aspect=fixed;image=https://cdn1.iconfinder.com/data/icons/science-technology-outline-24-px/24/Body_organ_eye_optical_view_visual-128.png" vertex="1" parent="Gr0Zq-AI6Quabplr0KPa-179">
          <mxGeometry x="527" y="279" width="27" height="27" as="geometry" />
        </mxCell>
        <mxCell id="aZNFLX7P17t4-BLINg9--248" value="" style="shape=image;html=1;verticalAlign=top;verticalLabelPosition=bottom;labelBackgroundColor=#ffffff;imageAspect=0;aspect=fixed;image=https://cdn1.iconfinder.com/data/icons/medical-178/96/Stomach-128.png" vertex="1" parent="Gr0Zq-AI6Quabplr0KPa-179">
          <mxGeometry x="447" y="275" width="34" height="34" as="geometry" />
        </mxCell>
        <mxCell id="aZNFLX7P17t4-BLINg9--249" value="" style="shape=mxgraph.signs.people.man_2;html=1;pointerEvents=1;fillColor=#000000;strokeColor=none;verticalLabelPosition=bottom;verticalAlign=top;align=center;" vertex="1" parent="Gr0Zq-AI6Quabplr0KPa-179">
          <mxGeometry x="683" y="128" width="27" height="42" as="geometry" />
        </mxCell>
        <mxCell id="aZNFLX7P17t4-BLINg9--281" value="" style="shape=mxgraph.signs.people.man_1;html=1;pointerEvents=1;fillColor=#000000;strokeColor=none;verticalLabelPosition=bottom;verticalAlign=top;align=center;" vertex="1" parent="Gr0Zq-AI6Quabplr0KPa-179">
          <mxGeometry x="688" y="224.25" width="31" height="36.75" as="geometry" />
        </mxCell>
        <mxCell id="aZNFLX7P17t4-BLINg9--285" value="" style="shape=mxgraph.signs.people.baby_2;html=1;pointerEvents=1;fillColor=#000000;strokeColor=none;verticalLabelPosition=bottom;verticalAlign=top;align=center;" vertex="1" parent="Gr0Zq-AI6Quabplr0KPa-179">
          <mxGeometry x="482.5" y="275" width="33.5" height="29" as="geometry" />
        </mxCell>
        <mxCell id="aZNFLX7P17t4-BLINg9--286" value="" style="shape=mxgraph.signs.people.baby_1;html=1;pointerEvents=1;fillColor=#000000;strokeColor=none;verticalLabelPosition=bottom;verticalAlign=top;align=center;" vertex="1" parent="Gr0Zq-AI6Quabplr0KPa-179">
          <mxGeometry x="524.25" y="194" width="33.75" height="30" as="geometry" />
        </mxCell>
        <mxCell id="aZNFLX7P17t4-BLINg9--289" value="" style="verticalLabelPosition=bottom;sketch=0;html=1;fillColor=#282828;strokeColor=none;verticalAlign=top;pointerEvents=1;align=center;shape=mxgraph.cisco_safe.people_places_things_icons.icon2;" vertex="1" parent="Gr0Zq-AI6Quabplr0KPa-179">
          <mxGeometry x="527" y="234.25" width="25" height="26.75" as="geometry" />
        </mxCell>
        <mxCell id="aZNFLX7P17t4-BLINg9--222" value="Organ Donation&lt;br&gt;&lt;br&gt;&lt;div style=&quot;text-align: left;&quot;&gt;About ..................&lt;/div&gt;&lt;div style=&quot;text-align: left;&quot;&gt;...........................&lt;/div&gt;&lt;div style=&quot;text-align: left;&quot;&gt;...........................&lt;/div&gt;&lt;div style=&quot;text-align: left;&quot;&gt;.........................&lt;/div&gt;&lt;div style=&quot;text-align: left;&quot;&gt;......................&lt;/div&gt;&lt;div style=&quot;text-align: left;&quot;&gt;....................&lt;/div&gt;&lt;div style=&quot;text-align: left;&quot;&gt;..................&lt;/div&gt;&lt;div style=&quot;text-align: left;&quot;&gt;............&lt;/div&gt;" style="rounded=1;whiteSpace=wrap;html=1;verticalAlign=top;" vertex="1" parent="1">
          <mxGeometry x="353" y="-1793" width="138" height="158" as="geometry" />
        </mxCell>
        <mxCell id="aZNFLX7P17t4-BLINg9--282" value="&lt;h6&gt;&lt;font style=&quot;font-size: 9px;&quot;&gt;Login&lt;/font&gt;&lt;/h6&gt;" style="html=1;shadow=0;dashed=0;shape=mxgraph.bootstrap.rrect;rSize=5;strokeColor=#0085FC;strokeWidth=1;fillColor=none;fontColor=#0085FC;whiteSpace=wrap;align=center;verticalAlign=middle;spacingLeft=0;fontStyle=0;fontSize=16;spacing=5;" vertex="1" parent="1">
          <mxGeometry x="410" y="-1773" width="35" height="13" as="geometry" />
        </mxCell>
        <mxCell id="aZNFLX7P17t4-BLINg9--284" value="&lt;h6&gt;&lt;font style=&quot;font-size: 8px;&quot;&gt;Register&lt;/font&gt;&lt;/h6&gt;" style="html=1;shadow=0;dashed=0;shape=mxgraph.bootstrap.rrect;rSize=5;strokeColor=#0085FC;strokeWidth=1;fillColor=none;fontColor=#0085FC;whiteSpace=wrap;align=center;verticalAlign=middle;spacingLeft=0;fontStyle=0;fontSize=16;spacing=5;" vertex="1" parent="1">
          <mxGeometry x="452" y="-1773" width="35" height="13" as="geometry" />
        </mxCell>
      </root>
    </mxGraphModel>
  </diagram>
</mxfile>
